<?xml version="1.0" encoding="UTF-8" standalone="no"?>
<svg width="1200" height="600" viewBox="0 0 1200 600" fill="none" xmlns="http://www.w3.org/2000/svg">
  <rect width="1200" height="600" fill="#f0f9ff"/>
  <defs>
    <linearGradient id="grad1" x1="0%" y1="0%" x2="100%" y2="100%">
      <stop offset="0%" style="stop-color:#7f56d9;stop-opacity:0.8" />
      <stop offset="100%" style="stop-color:#f43f5e;stop-opacity:0.8" />
    </linearGradient>
  </defs>
  
  <!-- Background Elements -->
  <circle cx="200" cy="100" r="60" fill="#e0f2fe" />
  <circle cx="1000" cy="500" r="80" fill="#e0f2fe" />
  <circle cx="900" cy="150" r="40" fill="#e0f2fe" />
  <circle cx="300" cy="450" r="50" fill="#e0f2fe" />
  
  <!-- Decorative Pattern -->
  <path d="M-100,600 C200,450 400,650 600,500 C800,350 1000,550 1300,400" stroke="#bae6fd" stroke-width="15" fill="none" />
  <path d="M-100,500 C200,350 400,550 600,400 C800,250 1000,450 1300,300" stroke="#7dd3fc" stroke-width="10" fill="none" />
  
  <!-- XOXO Symbol -->
  <g transform="translate(600, 250) scale(1.2)">
    <path d="M-70 -50 C-40 -20 -40 20 -70 50 M-70 50 C-40 20 -40 -20 -70 -50" stroke="url(#grad1)" stroke-width="12" stroke-linecap="round" fill="none" />
    <path d="M0 -50 L0 50" stroke="url(#grad1)" stroke-width="12" stroke-linecap="round" />
    <path d="M70 -50 C40 -20 40 20 70 50 M70 50 C40 20 40 -20 70 -50" stroke="url(#grad1)" stroke-width="12" stroke-linecap="round" fill="none" />
    <path d="M140 -50 L140 50" stroke="url(#grad1)" stroke-width="12" stroke-linecap="round" />
  </g>
  
  <!-- Text -->
  <text x="600" y="400" font-family="Arial" font-size="48" text-anchor="middle" font-weight="bold" fill="#1e40af">XOXO Experience Partners</text>
  <text x="600" y="460" font-family="Arial" font-size="24" text-anchor="middle" fill="#334155">Create Unforgettable Moments Together</text>
</svg>
